<svg width="20" height="20" viewBox="0 0 20 20" fill="none" xmlns="http://www.w3.org/2000/svg">
<path d="M10 0C8.02219 0 6.08879 0.58649 4.4443 1.6853C2.79981 2.78412 1.51809 4.3459 0.761209 6.17316C0.00433286 8.00042 -0.1937 10.0111 0.192152 11.9509C0.578004 13.8907 1.53041 15.6725 2.92894 17.0711C4.32746 18.4696 6.10929 19.422 8.0491 19.8078C9.98891 20.1937 11.9996 19.9957 13.8268 19.2388C15.6541 18.4819 17.2159 17.2002 18.3147 15.5557C19.4135 13.9112 20 11.9778 20 10C19.9971 7.34872 18.9426 4.80686 17.0679 2.93213C15.1931 1.05739 12.6513 0.00289398 10 0V0ZM5 11.6667C4.67037 11.6667 4.34814 11.5689 4.07405 11.3858C3.79997 11.2026 3.58635 10.9423 3.4602 10.6378C3.33406 10.3333 3.30105 9.99815 3.36536 9.67485C3.42967 9.35155 3.58841 9.05457 3.82149 8.82149C4.05458 8.5884 4.35155 8.42966 4.67485 8.36536C4.99815 8.30105 5.33327 8.33405 5.63781 8.4602C5.94235 8.58634 6.20265 8.79997 6.38579 9.07405C6.56892 9.34813 6.66667 9.67036 6.66667 10C6.66666 10.442 6.49106 10.8659 6.1785 11.1785C5.86594 11.4911 5.44203 11.6667 5 11.6667V11.6667ZM10 11.6667C9.67037 11.6667 9.34813 11.5689 9.07405 11.3858C8.79997 11.2026 8.58635 10.9423 8.4602 10.6378C8.33406 10.3333 8.30105 9.99815 8.36536 9.67485C8.42967 9.35155 8.5884 9.05457 8.82149 8.82149C9.05458 8.5884 9.35155 8.42966 9.67485 8.36536C9.99815 8.30105 10.3333 8.33405 10.6378 8.4602C10.9424 8.58634 11.2026 8.79997 11.3858 9.07405C11.5689 9.34813 11.6667 9.67036 11.6667 10C11.6667 10.442 11.4911 10.8659 11.1785 11.1785C10.8659 11.4911 10.442 11.6667 10 11.6667V11.6667ZM15 11.6667C14.6704 11.6667 14.3481 11.5689 14.0741 11.3858C13.8 11.2026 13.5863 10.9423 13.4602 10.6378C13.3341 10.3333 13.3011 9.99815 13.3654 9.67485C13.4297 9.35155 13.5884 9.05457 13.8215 8.82149C14.0546 8.5884 14.3515 8.42966 14.6749 8.36536C14.9982 8.30105 15.3333 8.33405 15.6378 8.4602C15.9424 8.58634 16.2026 8.79997 16.3858 9.07405C16.5689 9.34813 16.6667 9.67036 16.6667 10C16.6667 10.442 16.4911 10.8659 16.1785 11.1785C15.8659 11.4911 15.442 11.6667 15 11.6667V11.6667Z" fill="#01B4E4"/>
</svg>
